<svg width="100" height="100" xmlns="http://www.w3.org/2000/svg">

 <g>
  <title>background</title>
  <rect fill="none" id="canvas_background" height="402" width="582" y="-1" x="-1"/>
 </g>
 <g>
  <title>Layer 1</title>
  <path id="svg_2" fill="none" d="m80.3,82c-0.3,0 -0.6,0 -0.9,-0.1l-16.7,-4.5l-0.3,0.1c-4,1.6 -8.2,2.4 -12.5,2.4c-4.3,0 -8.5,-0.8 -12.5,-2.4l-0.3,-0.1l-16.7,4.5c-0.1,0.1 -0.4,0.1 -0.7,0.1c-1,0 -1.9,-0.5 -2.5,-1.3c-0.6,-0.8 -0.8,-1.8 -0.5,-2.8l4.3,-16l-0.2,-0.3c-1.8,-4 -2.8,-8.2 -2.8,-12.6c0,-17.1 14.4,-31 32,-31c17.6,0 32,13.9 32,31c0,4.4 -0.9,8.6 -2.8,12.6l-0.2,0.3l4.3,16c0.3,1 0.1,2 -0.5,2.8c-0.6,0.8 -1.5,1.3 -2.5,1.3l0,0zm-30,-27.7c-3.9,0 -7,3.1 -7,6.9s3.1,6.9 7,6.9c3.9,0 7,-3.1 7,-6.9s-3.2,-6.9 -7,-6.9zm9,-14.5c-3.9,0 -7,3.1 -7,6.9s3.1,6.9 7,6.9s7,-3.1 7,-6.9s-3.2,-6.9 -7,-6.9zm-18.6,0c-3.9,0 -7,3.1 -7,6.9s3.1,6.9 7,6.9s7,-3.1 7,-6.9s-3.1,-6.9 -7,-6.9z"/>
  <path id="svg_3" fill="#ffffff" d="m50,19c17.1,0 31,13.5 31,30c0,4.2 -0.9,8.3 -2.7,12.2l-0.3,0.6l0.2,0.7l4.2,15.7c0.2,0.9 -0.1,1.6 -0.4,1.9c-0.4,0.6 -1,0.9 -1.7,0.9c-0.2,0 -0.4,0 -0.6,-0.1l-16.3,-4.4l-0.7,-0.2l-0.6,0.3c-3.8,1.6 -7.9,2.4 -12.1,2.4s-8.3,-0.8 -12.1,-2.4l-0.6,-0.3l-0.7,0.2l-16.3,4.4c-0.2,0.1 -0.4,0.1 -0.6,0.1c-0.7,0 -1.3,-0.3 -1.7,-0.9c-0.2,-0.3 -0.6,-1 -0.4,-1.9l4.2,-15.7l0.2,-0.7l-0.3,-0.7c-1.8,-3.8 -2.7,-7.9 -2.7,-12.1c0,-16.5 13.9,-30 31,-30m9.3,35.5c4.4,0 8,-3.5 8,-7.9c0,-4.3 -3.6,-7.9 -8,-7.9s-8,3.5 -8,7.9c0,4.4 3.6,7.9 8,7.9m-18.6,0c4.4,0 8,-3.5 8,-7.9c0,-4.3 -3.6,-7.9 -8,-7.9s-8,3.5 -8,7.9c0,4.4 3.6,7.9 8,7.9m9.6,14.5c4.4,0 8,-3.5 8,-7.9c0,-4.3 -3.6,-7.9 -8,-7.9s-8,3.5 -8,7.9c0,4.4 3.6,7.9 8,7.9m-0.3,-52c-18.2,0 -33,14.3 -33,32c0,4.6 1,9 2.8,13l-4.2,15.7c-0.7,2.7 1.4,5.3 4.1,5.3c0.4,0 0.7,0 1.1,-0.1l16.3,-4.4c4,1.6 8.3,2.5 12.9,2.5s8.9,-0.9 12.9,-2.5l16.3,4.4c0.4,0.1 0.8,0.1 1.1,0.1c2.7,0 4.8,-2.6 4.1,-5.3l-4.2,-15.7c1.8,-4 2.8,-8.4 2.8,-13c0,-17.7 -14.8,-32 -33,-32l0,0zm9.3,35.5c-3.3,0 -6,-2.6 -6,-5.9c0,-3.2 2.7,-5.9 6,-5.9c3.3,0 6,2.6 6,5.9c0,3.3 -2.7,5.9 -6,5.9l0,0zm-18.6,0c-3.3,0 -6,-2.6 -6,-5.9c0,-3.2 2.7,-5.9 6,-5.9c3.3,0 6,2.6 6,5.9c0,3.3 -2.7,5.9 -6,5.9l0,0zm9.6,14.5c-3.3,0 -6,-2.6 -6,-5.9c0,-3.2 2.7,-5.9 6,-5.9c3.3,0 6,2.6 6,5.9c0,3.3 -2.7,5.9 -6,5.9l0,0z"/>
 </g>
</svg>